<mxfile host="app.diagrams.net" modified="2023-04-02T00:53:54.150Z" agent="Mozilla/5.0 (Windows NT 10.0; Win64; x64; rv:109.0) Gecko/20100101 Firefox/111.0" etag="J7-Mr9XxZJHSFO4g5lGw" version="21.1.2" type="github">
  <diagram name="Página-1" id="EJFK8gLoTniek4UhLmyd">
    <mxGraphModel dx="993" dy="1689" grid="1" gridSize="10" guides="1" tooltips="1" connect="1" arrows="1" fold="1" page="1" pageScale="1" pageWidth="1169" pageHeight="826" math="0" shadow="0">
      <root>
        <mxCell id="0" />
        <mxCell id="1" parent="0" />
        <mxCell id="UVlV1NGihJrMhhD-RiZH-1" value="PROFESSOR" style="shape=umlActor;verticalLabelPosition=bottom;verticalAlign=top;html=1;outlineConnect=0;" parent="1" vertex="1">
          <mxGeometry x="170" y="-160" width="30" height="60" as="geometry" />
        </mxCell>
        <mxCell id="UVlV1NGihJrMhhD-RiZH-2" value="COORDENADOR DE CURSO" style="shape=umlActor;verticalLabelPosition=bottom;verticalAlign=top;html=1;outlineConnect=0;" parent="1" vertex="1">
          <mxGeometry x="170" y="340" width="30" height="60" as="geometry" />
        </mxCell>
        <mxCell id="UVlV1NGihJrMhhD-RiZH-3" value="DIRETOR DA IES" style="shape=umlActor;verticalLabelPosition=bottom;verticalAlign=top;html=1;outlineConnect=0;" parent="1" vertex="1">
          <mxGeometry x="170" y="560" width="30" height="60" as="geometry" />
        </mxCell>
        <mxCell id="UVlV1NGihJrMhhD-RiZH-6" value="DADOS GERAIS" style="ellipse;whiteSpace=wrap;html=1;" parent="1" vertex="1">
          <mxGeometry x="280" y="-160" width="120" height="60" as="geometry" />
        </mxCell>
        <mxCell id="UVlV1NGihJrMhhD-RiZH-7" value="LISTAR PROFESSORES ATIVOS" style="ellipse;whiteSpace=wrap;html=1;" parent="1" vertex="1">
          <mxGeometry x="280" y="340" width="120" height="60" as="geometry" />
        </mxCell>
        <mxCell id="UVlV1NGihJrMhhD-RiZH-9" value="CONSULTAR &lt;br&gt;PROFESSORES" style="ellipse;whiteSpace=wrap;html=1;" parent="1" vertex="1">
          <mxGeometry x="280" y="560" width="120" height="60" as="geometry" />
        </mxCell>
        <mxCell id="UVlV1NGihJrMhhD-RiZH-10" value="" style="endArrow=none;html=1;rounded=0;exitX=0.5;exitY=0.5;exitDx=0;exitDy=0;exitPerimeter=0;entryX=0;entryY=0.5;entryDx=0;entryDy=0;" parent="1" source="UVlV1NGihJrMhhD-RiZH-1" target="UVlV1NGihJrMhhD-RiZH-6" edge="1">
          <mxGeometry width="50" height="50" relative="1" as="geometry">
            <mxPoint x="410" y="-90" as="sourcePoint" />
            <mxPoint x="460" y="-140" as="targetPoint" />
          </mxGeometry>
        </mxCell>
        <mxCell id="UVlV1NGihJrMhhD-RiZH-11" value="" style="endArrow=none;html=1;rounded=0;exitX=0.5;exitY=0.5;exitDx=0;exitDy=0;exitPerimeter=0;entryX=0;entryY=0.5;entryDx=0;entryDy=0;" parent="1" source="UVlV1NGihJrMhhD-RiZH-2" target="UVlV1NGihJrMhhD-RiZH-7" edge="1">
          <mxGeometry width="50" height="50" relative="1" as="geometry">
            <mxPoint x="195" y="369.5" as="sourcePoint" />
            <mxPoint x="280" y="369.5" as="targetPoint" />
          </mxGeometry>
        </mxCell>
        <mxCell id="UVlV1NGihJrMhhD-RiZH-12" value="" style="endArrow=none;html=1;rounded=0;exitX=0.5;exitY=0.5;exitDx=0;exitDy=0;exitPerimeter=0;entryX=0;entryY=0.5;entryDx=0;entryDy=0;" parent="1" source="UVlV1NGihJrMhhD-RiZH-3" target="UVlV1NGihJrMhhD-RiZH-9" edge="1">
          <mxGeometry width="50" height="50" relative="1" as="geometry">
            <mxPoint x="195" y="600" as="sourcePoint" />
            <mxPoint x="280" y="600" as="targetPoint" />
          </mxGeometry>
        </mxCell>
        <mxCell id="UVlV1NGihJrMhhD-RiZH-13" value="" style="endArrow=none;html=1;rounded=0;exitX=0.5;exitY=0;exitDx=0;exitDy=0;exitPerimeter=0;" parent="1" source="UVlV1NGihJrMhhD-RiZH-2" target="UVlV1NGihJrMhhD-RiZH-1" edge="1">
          <mxGeometry width="50" height="50" relative="1" as="geometry">
            <mxPoint x="410" y="410" as="sourcePoint" />
            <mxPoint x="460" y="360" as="targetPoint" />
          </mxGeometry>
        </mxCell>
        <mxCell id="UVlV1NGihJrMhhD-RiZH-14" value="" style="endArrow=none;html=1;rounded=0;" parent="1" target="UVlV1NGihJrMhhD-RiZH-2" edge="1">
          <mxGeometry width="50" height="50" relative="1" as="geometry">
            <mxPoint x="185" y="560" as="sourcePoint" />
            <mxPoint x="184.5" y="420" as="targetPoint" />
          </mxGeometry>
        </mxCell>
        <mxCell id="UVlV1NGihJrMhhD-RiZH-15" value="MANTER DADOS PESSOAIS" style="ellipse;whiteSpace=wrap;html=1;" parent="1" vertex="1">
          <mxGeometry x="585" y="-270" width="120" height="60" as="geometry" />
        </mxCell>
        <mxCell id="UVlV1NGihJrMhhD-RiZH-16" value="" style="endArrow=none;dashed=1;html=1;rounded=0;exitX=0.5;exitY=0;exitDx=0;exitDy=0;" parent="1" source="UVlV1NGihJrMhhD-RiZH-6" edge="1">
          <mxGeometry width="50" height="50" relative="1" as="geometry">
            <mxPoint x="410" y="-40" as="sourcePoint" />
            <mxPoint x="340" y="-310" as="targetPoint" />
          </mxGeometry>
        </mxCell>
        <mxCell id="UVlV1NGihJrMhhD-RiZH-18" value="&amp;lt;&amp;lt;include&amp;gt;&amp;gt;" style="html=1;verticalAlign=bottom;labelBackgroundColor=none;endArrow=open;endFill=0;dashed=1;rounded=0;entryX=0;entryY=0.5;entryDx=0;entryDy=0;" parent="1" edge="1">
          <mxGeometry width="160" relative="1" as="geometry">
            <mxPoint x="340" y="-240" as="sourcePoint" />
            <mxPoint x="585" y="-240" as="targetPoint" />
            <mxPoint as="offset" />
          </mxGeometry>
        </mxCell>
        <mxCell id="UVlV1NGihJrMhhD-RiZH-19" value="MANTER EXPERIÊNCIA PROFISSIONAL" style="ellipse;whiteSpace=wrap;html=1;" parent="1" vertex="1">
          <mxGeometry x="585" y="-200" width="120" height="60" as="geometry" />
        </mxCell>
        <mxCell id="UVlV1NGihJrMhhD-RiZH-20" value="&amp;lt;&amp;lt;include&amp;gt;&amp;gt;" style="html=1;verticalAlign=bottom;labelBackgroundColor=none;endArrow=open;endFill=0;dashed=1;rounded=0;entryX=0;entryY=0.5;entryDx=0;entryDy=0;" parent="1" edge="1">
          <mxGeometry width="160" relative="1" as="geometry">
            <mxPoint x="340" y="-170" as="sourcePoint" />
            <mxPoint x="585" y="-170.5" as="targetPoint" />
            <mxPoint as="offset" />
          </mxGeometry>
        </mxCell>
        <mxCell id="UVlV1NGihJrMhhD-RiZH-21" value="SELECIONAR DISCIPLINA PARA LECIONAR" style="ellipse;whiteSpace=wrap;html=1;" parent="1" vertex="1">
          <mxGeometry x="585" y="-130" width="120" height="60" as="geometry" />
        </mxCell>
        <mxCell id="UVlV1NGihJrMhhD-RiZH-22" value="&amp;lt;&amp;lt;include&amp;gt;&amp;gt;" style="html=1;verticalAlign=bottom;labelBackgroundColor=none;endArrow=open;endFill=0;dashed=1;rounded=0;entryX=0;entryY=0.5;entryDx=0;entryDy=0;exitX=0.5;exitY=1;exitDx=0;exitDy=0;" parent="1" source="UVlV1NGihJrMhhD-RiZH-6" target="UVlV1NGihJrMhhD-RiZH-21" edge="1">
          <mxGeometry width="160" relative="1" as="geometry">
            <mxPoint x="350" y="-160" as="sourcePoint" />
            <mxPoint x="595" y="-160.5" as="targetPoint" />
            <mxPoint as="offset" />
          </mxGeometry>
        </mxCell>
        <mxCell id="UVlV1NGihJrMhhD-RiZH-23" value="ALTERAR SELEÇÃO DAS DISCIPLINAS" style="ellipse;whiteSpace=wrap;html=1;" parent="1" vertex="1">
          <mxGeometry x="585" y="-60" width="120" height="60" as="geometry" />
        </mxCell>
        <mxCell id="UVlV1NGihJrMhhD-RiZH-24" value="MANTER FORMAÇÃO" style="ellipse;whiteSpace=wrap;html=1;" parent="1" vertex="1">
          <mxGeometry x="585" y="-340" width="120" height="60" as="geometry" />
        </mxCell>
        <mxCell id="UVlV1NGihJrMhhD-RiZH-25" value="&amp;lt;&amp;lt;include&amp;gt;&amp;gt;" style="html=1;verticalAlign=bottom;labelBackgroundColor=none;endArrow=open;endFill=0;dashed=1;rounded=0;entryX=0;entryY=0.5;entryDx=0;entryDy=0;" parent="1" edge="1">
          <mxGeometry width="160" relative="1" as="geometry">
            <mxPoint x="340" y="-310.5" as="sourcePoint" />
            <mxPoint x="585" y="-310.5" as="targetPoint" />
            <mxPoint as="offset" />
          </mxGeometry>
        </mxCell>
        <mxCell id="UVlV1NGihJrMhhD-RiZH-26" value="&amp;lt;&amp;lt;include&amp;gt;&amp;gt;" style="html=1;verticalAlign=bottom;labelBackgroundColor=none;endArrow=open;endFill=0;dashed=1;rounded=0;entryX=0;entryY=0.5;entryDx=0;entryDy=0;" parent="1" edge="1">
          <mxGeometry width="160" relative="1" as="geometry">
            <mxPoint x="340" y="-30.5" as="sourcePoint" />
            <mxPoint x="585" y="-30.5" as="targetPoint" />
            <mxPoint as="offset" />
          </mxGeometry>
        </mxCell>
        <mxCell id="UVlV1NGihJrMhhD-RiZH-27" value="" style="endArrow=none;dashed=1;html=1;rounded=0;" parent="1" edge="1">
          <mxGeometry width="50" height="50" relative="1" as="geometry">
            <mxPoint x="340" y="110" as="sourcePoint" />
            <mxPoint x="339.5" y="-100" as="targetPoint" />
          </mxGeometry>
        </mxCell>
        <mxCell id="UVlV1NGihJrMhhD-RiZH-28" value="EXCLUIR SELEÇÃO DAS DISCIPLINAS " style="ellipse;whiteSpace=wrap;html=1;" parent="1" vertex="1">
          <mxGeometry x="585" y="10" width="125" height="60" as="geometry" />
        </mxCell>
        <mxCell id="UVlV1NGihJrMhhD-RiZH-30" value="&amp;lt;&amp;lt;include&amp;gt;&amp;gt;" style="html=1;verticalAlign=bottom;labelBackgroundColor=none;endArrow=open;endFill=0;dashed=1;rounded=0;entryX=0;entryY=0.5;entryDx=0;entryDy=0;" parent="1" edge="1">
          <mxGeometry width="160" relative="1" as="geometry">
            <mxPoint x="340" y="39.5" as="sourcePoint" />
            <mxPoint x="585" y="39.5" as="targetPoint" />
            <mxPoint as="offset" />
          </mxGeometry>
        </mxCell>
        <mxCell id="UVlV1NGihJrMhhD-RiZH-32" value="CONSULTAR SELEÇÃO DE DISCIPLINAS" style="ellipse;whiteSpace=wrap;html=1;" parent="1" vertex="1">
          <mxGeometry x="590" y="80" width="120" height="60" as="geometry" />
        </mxCell>
        <mxCell id="UVlV1NGihJrMhhD-RiZH-33" value="&amp;lt;&amp;lt;include&amp;gt;&amp;gt;" style="html=1;verticalAlign=bottom;labelBackgroundColor=none;endArrow=open;endFill=0;dashed=1;rounded=0;entryX=0;entryY=0.5;entryDx=0;entryDy=0;" parent="1" edge="1">
          <mxGeometry width="160" relative="1" as="geometry">
            <mxPoint x="340" y="109.5" as="sourcePoint" />
            <mxPoint x="585" y="109.5" as="targetPoint" />
            <mxPoint as="offset" />
          </mxGeometry>
        </mxCell>
        <mxCell id="3NK9w8VLI0gXLKrEOJrJ-1" value="ÁREA DE LOGIN" style="ellipse;whiteSpace=wrap;html=1;" parent="1" vertex="1">
          <mxGeometry x="125" y="-413" width="120" height="60" as="geometry" />
        </mxCell>
        <mxCell id="3NK9w8VLI0gXLKrEOJrJ-2" value="&amp;lt;&amp;lt;include&amp;gt;&amp;gt;" style="html=1;verticalAlign=bottom;labelBackgroundColor=none;endArrow=open;endFill=0;dashed=1;rounded=0;entryX=0;entryY=0.5;entryDx=0;entryDy=0;" parent="1" target="3NK9w8VLI0gXLKrEOJrJ-3" edge="1">
          <mxGeometry width="160" relative="1" as="geometry">
            <mxPoint x="245" y="-383.5" as="sourcePoint" />
            <mxPoint x="490" y="-383.5" as="targetPoint" />
            <mxPoint as="offset" />
          </mxGeometry>
        </mxCell>
        <mxCell id="3NK9w8VLI0gXLKrEOJrJ-4" value="SERA FORNECIDO UM LOGIN E SENHA PARA O ATOR (QUE É A MATRÍCULA DO MESMO). DEVE SER ALTERADO NO PRIMEIRO ACESSO OBRIGATÓRIAMENTE" style="shape=note;whiteSpace=wrap;html=1;backgroundOutline=1;darkOpacity=0.05;" parent="1" vertex="1">
          <mxGeometry x="290" y="-530" width="260" height="91" as="geometry" />
        </mxCell>
        <mxCell id="3NK9w8VLI0gXLKrEOJrJ-7" value="" style="html=1;verticalAlign=bottom;labelBackgroundColor=none;endArrow=open;endFill=0;dashed=1;rounded=0;exitX=1;exitY=0.5;exitDx=0;exitDy=0;" parent="1" target="3NK9w8VLI0gXLKrEOJrJ-3" edge="1" source="3NK9w8VLI0gXLKrEOJrJ-1">
          <mxGeometry width="160" relative="1" as="geometry">
            <mxPoint x="300" y="-380" as="sourcePoint" />
            <mxPoint x="780" y="-385" as="targetPoint" />
            <mxPoint as="offset" />
          </mxGeometry>
        </mxCell>
        <mxCell id="3NK9w8VLI0gXLKrEOJrJ-3" value="TROCAR SENHA PADRÃO" style="ellipse;whiteSpace=wrap;html=1;" parent="1" vertex="1">
          <mxGeometry x="582.5" y="-417" width="125" height="63" as="geometry" />
        </mxCell>
        <mxCell id="3NK9w8VLI0gXLKrEOJrJ-8" value="" style="endArrow=none;html=1;rounded=0;entryX=0.5;entryY=1;entryDx=0;entryDy=0;exitX=0.5;exitY=0;exitDx=0;exitDy=0;exitPerimeter=0;" parent="1" source="UVlV1NGihJrMhhD-RiZH-1" target="3NK9w8VLI0gXLKrEOJrJ-1" edge="1">
          <mxGeometry width="50" height="50" relative="1" as="geometry">
            <mxPoint x="370" y="-260" as="sourcePoint" />
            <mxPoint x="420" y="-310" as="targetPoint" />
          </mxGeometry>
        </mxCell>
        <mxCell id="3NK9w8VLI0gXLKrEOJrJ-10" value="CONSULTAR CADASTRO" style="ellipse;whiteSpace=wrap;html=1;" parent="1" vertex="1">
          <mxGeometry x="280" y="150" width="120" height="60" as="geometry" />
        </mxCell>
        <mxCell id="3NK9w8VLI0gXLKrEOJrJ-12" value="" style="endArrow=none;html=1;rounded=0;exitX=0;exitY=0;exitDx=0;exitDy=0;entryX=1;entryY=1;entryDx=0;entryDy=0;entryPerimeter=0;" parent="1" source="3NK9w8VLI0gXLKrEOJrJ-10" target="UVlV1NGihJrMhhD-RiZH-1" edge="1">
          <mxGeometry width="50" height="50" relative="1" as="geometry">
            <mxPoint x="490" y="140" as="sourcePoint" />
            <mxPoint x="540" y="90" as="targetPoint" />
          </mxGeometry>
        </mxCell>
        <mxCell id="Z181qQEqJ0iYLrkafPK_-5" value="" style="endArrow=none;dashed=1;html=1;dashPattern=1 3;strokeWidth=2;rounded=0;entryX=0.5;entryY=1;entryDx=0;entryDy=0;entryPerimeter=0;" edge="1" parent="1" target="3NK9w8VLI0gXLKrEOJrJ-4">
          <mxGeometry width="50" height="50" relative="1" as="geometry">
            <mxPoint x="420" y="-390" as="sourcePoint" />
            <mxPoint x="500" y="-469" as="targetPoint" />
          </mxGeometry>
        </mxCell>
        <mxCell id="Z181qQEqJ0iYLrkafPK_-7" value="EXCLUIR SELEÇÃO" style="ellipse;whiteSpace=wrap;html=1;" vertex="1" parent="1">
          <mxGeometry x="590" y="150" width="120" height="60" as="geometry" />
        </mxCell>
        <mxCell id="Z181qQEqJ0iYLrkafPK_-9" value="&amp;lt;&amp;lt;extend&amp;gt;&amp;gt;" style="html=1;verticalAlign=bottom;labelBackgroundColor=none;endArrow=open;endFill=0;dashed=1;rounded=0;entryX=0;entryY=0.5;entryDx=0;entryDy=0;exitX=1;exitY=0.5;exitDx=0;exitDy=0;" edge="1" parent="1" source="3NK9w8VLI0gXLKrEOJrJ-10" target="Z181qQEqJ0iYLrkafPK_-7">
          <mxGeometry width="160" relative="1" as="geometry">
            <mxPoint x="510" y="210" as="sourcePoint" />
            <mxPoint x="755" y="210" as="targetPoint" />
            <mxPoint as="offset" />
          </mxGeometry>
        </mxCell>
        <mxCell id="Z181qQEqJ0iYLrkafPK_-11" value="GERAR CURRÍCULO" style="ellipse;whiteSpace=wrap;html=1;" vertex="1" parent="1">
          <mxGeometry x="587.5" y="340" width="120" height="65" as="geometry" />
        </mxCell>
        <mxCell id="Z181qQEqJ0iYLrkafPK_-12" value="FORMATO DE IMPRESSÃO CURRICULO" style="ellipse;whiteSpace=wrap;html=1;" vertex="1" parent="1">
          <mxGeometry x="870" y="413" width="130" height="70" as="geometry" />
        </mxCell>
        <mxCell id="Z181qQEqJ0iYLrkafPK_-13" value="&amp;lt;&amp;lt;EXTEND&amp;gt;&amp;gt;" style="html=1;verticalAlign=bottom;endArrow=open;dashed=1;endSize=8;edgeStyle=elbowEdgeStyle;elbow=vertical;curved=0;rounded=0;entryX=1;entryY=0.5;entryDx=0;entryDy=0;exitX=0;exitY=0.5;exitDx=0;exitDy=0;" edge="1" parent="1" source="Z181qQEqJ0iYLrkafPK_-11" target="UVlV1NGihJrMhhD-RiZH-7">
          <mxGeometry x="0.0235" relative="1" as="geometry">
            <mxPoint x="510" y="380" as="sourcePoint" />
            <mxPoint x="578.9519741084985" y="379.8571428571429" as="targetPoint" />
            <mxPoint as="offset" />
            <Array as="points">
              <mxPoint x="430" y="370" />
              <mxPoint x="590" y="390" />
            </Array>
          </mxGeometry>
        </mxCell>
        <mxCell id="Z181qQEqJ0iYLrkafPK_-14" value="&amp;lt;&amp;lt;EXTEND&amp;gt;&amp;gt;" style="html=1;verticalAlign=bottom;endArrow=open;dashed=1;endSize=8;edgeStyle=elbowEdgeStyle;elbow=vertical;curved=0;rounded=0;exitX=0;exitY=0.5;exitDx=0;exitDy=0;" edge="1" parent="1" source="Z181qQEqJ0iYLrkafPK_-27">
          <mxGeometry x="0.0235" relative="1" as="geometry">
            <mxPoint x="860" y="360" as="sourcePoint" />
            <mxPoint x="707" y="370" as="targetPoint" />
            <mxPoint as="offset" />
            <Array as="points">
              <mxPoint x="790" y="370" />
            </Array>
          </mxGeometry>
        </mxCell>
        <mxCell id="Z181qQEqJ0iYLrkafPK_-15" value="&amp;lt;&amp;lt;EXTEND&amp;gt;&amp;gt;" style="html=1;verticalAlign=bottom;endArrow=open;dashed=1;endSize=8;edgeStyle=elbowEdgeStyle;elbow=vertical;curved=0;rounded=0;entryX=0.5;entryY=1;entryDx=0;entryDy=0;exitX=0;exitY=0.5;exitDx=0;exitDy=0;" edge="1" parent="1" source="Z181qQEqJ0iYLrkafPK_-12" target="Z181qQEqJ0iYLrkafPK_-11">
          <mxGeometry x="0.0235" relative="1" as="geometry">
            <mxPoint x="861" y="470" as="sourcePoint" />
            <mxPoint x="764" y="491" as="targetPoint" />
            <mxPoint as="offset" />
            <Array as="points">
              <mxPoint x="740" y="445" />
            </Array>
          </mxGeometry>
        </mxCell>
        <mxCell id="Z181qQEqJ0iYLrkafPK_-16" value="LISTAR PROFESSORES INATIVOS" style="ellipse;whiteSpace=wrap;html=1;fontSize=10;" vertex="1" parent="1">
          <mxGeometry x="280" y="460" width="120" height="60" as="geometry" />
        </mxCell>
        <mxCell id="Z181qQEqJ0iYLrkafPK_-17" value="LISTAGEM DE PROFESSORES HABILITADOS PARA DETERMINADA DISCIPLINA" style="ellipse;whiteSpace=wrap;html=1;fontSize=8;" vertex="1" parent="1">
          <mxGeometry x="280" y="660" width="120" height="60" as="geometry" />
        </mxCell>
        <mxCell id="Z181qQEqJ0iYLrkafPK_-18" value="EXCLUIR PROFESSOR" style="ellipse;whiteSpace=wrap;html=1;" vertex="1" parent="1">
          <mxGeometry x="490" y="630" width="120" height="60" as="geometry" />
        </mxCell>
        <mxCell id="Z181qQEqJ0iYLrkafPK_-19" value="&amp;lt;&amp;lt;EXTEND&amp;gt;&amp;gt;" style="html=1;verticalAlign=bottom;endArrow=open;dashed=1;endSize=8;edgeStyle=elbowEdgeStyle;elbow=vertical;curved=0;rounded=0;entryX=1;entryY=0.5;entryDx=0;entryDy=0;exitX=0;exitY=0.5;exitDx=0;exitDy=0;" edge="1" parent="1" source="Z181qQEqJ0iYLrkafPK_-20" target="UVlV1NGihJrMhhD-RiZH-9">
          <mxGeometry x="0.0231" relative="1" as="geometry">
            <mxPoint x="660" y="600" as="sourcePoint" />
            <mxPoint x="490" y="650" as="targetPoint" />
            <mxPoint as="offset" />
            <Array as="points">
              <mxPoint x="560" y="590" />
              <mxPoint x="650" y="660" />
            </Array>
          </mxGeometry>
        </mxCell>
        <mxCell id="Z181qQEqJ0iYLrkafPK_-20" value="INATIVAR PROFESSOR&lt;br&gt;&lt;br&gt;ATIVAR PROFESSOR" style="ellipse;whiteSpace=wrap;html=1;" vertex="1" parent="1">
          <mxGeometry x="710" y="560" width="170" height="60" as="geometry" />
        </mxCell>
        <mxCell id="Z181qQEqJ0iYLrkafPK_-21" value="" style="endArrow=none;html=1;rounded=0;exitX=0;exitY=0.5;exitDx=0;exitDy=0;entryX=1;entryY=0.5;entryDx=0;entryDy=0;" edge="1" parent="1" target="Z181qQEqJ0iYLrkafPK_-20" source="Z181qQEqJ0iYLrkafPK_-20">
          <mxGeometry width="50" height="50" relative="1" as="geometry">
            <mxPoint x="710" y="579.5" as="sourcePoint" />
            <mxPoint x="910" y="590" as="targetPoint" />
          </mxGeometry>
        </mxCell>
        <mxCell id="Z181qQEqJ0iYLrkafPK_-22" value="&amp;lt;&amp;lt;EXTEND&amp;gt;&amp;gt;" style="html=1;verticalAlign=bottom;endArrow=open;dashed=1;endSize=8;edgeStyle=elbowEdgeStyle;elbow=vertical;curved=0;rounded=0;entryX=0.5;entryY=1;entryDx=0;entryDy=0;" edge="1" parent="1" source="Z181qQEqJ0iYLrkafPK_-18" target="UVlV1NGihJrMhhD-RiZH-9">
          <mxGeometry x="0.0231" relative="1" as="geometry">
            <mxPoint x="535" y="740" as="sourcePoint" />
            <mxPoint x="450" y="650" as="targetPoint" />
            <mxPoint as="offset" />
            <Array as="points">
              <mxPoint x="430" y="650" />
              <mxPoint x="515" y="710" />
            </Array>
          </mxGeometry>
        </mxCell>
        <mxCell id="Z181qQEqJ0iYLrkafPK_-23" value="MOTIVO&amp;nbsp;" style="ellipse;whiteSpace=wrap;html=1;" vertex="1" parent="1">
          <mxGeometry x="736.25" y="700" width="117.5" height="60" as="geometry" />
        </mxCell>
        <mxCell id="Z181qQEqJ0iYLrkafPK_-24" value="&amp;lt;&amp;lt;INCLUDE&amp;gt;&amp;gt;" style="html=1;verticalAlign=bottom;endArrow=open;dashed=1;endSize=8;edgeStyle=elbowEdgeStyle;elbow=vertical;curved=0;rounded=0;exitX=0.5;exitY=0;exitDx=0;exitDy=0;entryX=0.5;entryY=1;entryDx=0;entryDy=0;" edge="1" parent="1" source="Z181qQEqJ0iYLrkafPK_-23" target="Z181qQEqJ0iYLrkafPK_-20">
          <mxGeometry relative="1" as="geometry">
            <mxPoint x="960" y="620" as="sourcePoint" />
            <mxPoint x="920" y="550" as="targetPoint" />
            <Array as="points">
              <mxPoint x="820" y="680" />
            </Array>
          </mxGeometry>
        </mxCell>
        <mxCell id="Z181qQEqJ0iYLrkafPK_-25" value="OBRIGATÓRIO INFORMAR O MOTIVO" style="whiteSpace=wrap;html=1;shape=mxgraph.basic.document" vertex="1" parent="1">
          <mxGeometry x="930" y="590" width="120" height="70" as="geometry" />
        </mxCell>
        <mxCell id="Z181qQEqJ0iYLrkafPK_-26" value="" style="endArrow=none;dashed=1;html=1;rounded=0;entryX=0.5;entryY=1;entryDx=0;entryDy=0;entryPerimeter=0;" edge="1" parent="1" target="Z181qQEqJ0iYLrkafPK_-25">
          <mxGeometry width="50" height="50" relative="1" as="geometry">
            <mxPoint x="810" y="670" as="sourcePoint" />
            <mxPoint x="1010" y="555" as="targetPoint" />
          </mxGeometry>
        </mxCell>
        <mxCell id="Z181qQEqJ0iYLrkafPK_-27" value="VISUALIZAR CURRÍCULO NA TELA" style="ellipse;whiteSpace=wrap;html=1;" vertex="1" parent="1">
          <mxGeometry x="870" y="335" width="130" height="70" as="geometry" />
        </mxCell>
        <mxCell id="Z181qQEqJ0iYLrkafPK_-30" value="" style="endArrow=none;html=1;rounded=0;exitX=0.75;exitY=0.1;exitDx=0;exitDy=0;exitPerimeter=0;entryX=0;entryY=0.5;entryDx=0;entryDy=0;" edge="1" parent="1" source="UVlV1NGihJrMhhD-RiZH-3" target="Z181qQEqJ0iYLrkafPK_-16">
          <mxGeometry width="50" height="50" relative="1" as="geometry">
            <mxPoint x="510" y="550" as="sourcePoint" />
            <mxPoint x="560" y="500" as="targetPoint" />
          </mxGeometry>
        </mxCell>
        <mxCell id="Z181qQEqJ0iYLrkafPK_-31" value="" style="endArrow=none;html=1;rounded=0;exitX=0;exitY=0.5;exitDx=0;exitDy=0;entryX=1;entryY=1;entryDx=0;entryDy=0;entryPerimeter=0;" edge="1" parent="1" source="Z181qQEqJ0iYLrkafPK_-17" target="UVlV1NGihJrMhhD-RiZH-3">
          <mxGeometry width="50" height="50" relative="1" as="geometry">
            <mxPoint x="158" y="786" as="sourcePoint" />
            <mxPoint x="245" y="710" as="targetPoint" />
          </mxGeometry>
        </mxCell>
      </root>
    </mxGraphModel>
  </diagram>
</mxfile>
